# 3ds Max Wavefront OBJ Exporter v0.97b - (c)2007 guruware
# File Created: 12.03.2017 13:48:54

mtllib frontLeftWheel.mtl

#
# object Camaro_Warrior_Wheel02
#

v  -8.4805 3.8677 -13.1474
v  -7.9174 4.0099 -13.4908
v  -7.9174 2.8346 -13.7245
v  -8.4805 2.8346 -13.3529
v  -8.4805 4.7434 -12.5622
v  -7.9174 5.0062 -12.8250
v  -8.4805 5.3286 -11.6865
v  -7.9174 5.6720 -11.8287
v  -8.4805 5.5341 -10.6534
v  -7.9174 5.9057 -10.6534
v  -8.6805 2.8346 -12.4534
v  -8.6805 3.5235 -12.3164
v  -8.6805 4.1074 -11.9262
v  -8.6805 4.4976 -11.3423
v  -8.6805 4.6346 -10.6534
v  -8.3240 2.8346 -12.1567
v  -8.3240 3.4099 -12.0423
v  -8.3240 3.8976 -11.7164
v  -8.3240 4.2235 -11.2287
v  -8.3240 4.3379 -10.6534
v  -7.7588 2.8346 -12.1347
v  -7.2123 2.8346 -10.6534
v  -7.7588 3.4015 -12.0220
v  -7.7588 3.8821 -11.7009
v  -7.7588 4.2032 -11.2203
v  -7.7588 4.3159 -10.6534
v  -5.7596 5.0062 -12.8250
v  -5.7596 4.0099 -13.4908
v  -5.7596 5.6720 -11.8287
v  -5.1966 3.8677 -13.1474
v  -5.1966 2.8346 -13.3529
v  -5.7596 2.8346 -13.7245
v  -5.1966 4.7434 -12.5622
v  -5.1966 5.3286 -11.6865
v  -5.7596 5.9057 -10.6534
v  -5.1966 5.5341 -10.6534
v  -5.2936 2.8346 -10.6534
v  -8.4805 5.3286 -9.6204
v  -7.9174 5.6720 -9.4782
v  -8.4805 4.7434 -8.7447
v  -7.9174 5.0062 -8.4819
v  -7.9174 4.0099 -7.8161
v  -8.4805 3.8677 -8.1595
v  -8.4805 2.8346 -7.9540
v  -7.9174 2.8346 -7.5824
v  -8.6805 4.4976 -9.9646
v  -8.6805 4.1074 -9.3807
v  -8.6805 3.5235 -8.9905
v  -8.6805 2.8346 -8.8535
v  -8.3240 4.2235 -10.0782
v  -8.3240 3.8976 -9.5905
v  -8.3240 3.4099 -9.2646
v  -8.3240 2.8346 -9.1502
v  -7.7588 4.2032 -10.0866
v  -7.7588 3.8821 -9.6060
v  -7.7588 3.4015 -9.2849
v  -7.7588 2.8346 -9.1722
v  -5.7596 5.0062 -8.4819
v  -5.7596 5.6720 -9.4782
v  -5.7596 4.0099 -7.8161
v  -5.1966 5.3286 -9.6204
v  -5.1966 4.7434 -8.7447
v  -5.1966 3.8677 -8.1595
v  -5.7596 2.8346 -7.5824
v  -5.1966 2.8346 -7.9540
v  -8.4805 1.8016 -8.1595
v  -7.9174 1.6594 -7.8161
v  -8.4805 0.9259 -8.7447
v  -7.9174 0.6631 -8.4819
v  -8.4805 0.3407 -9.6204
v  -7.9174 -0.0027 -9.4782
v  -8.4805 0.1352 -10.6534
v  -7.9174 -0.2364 -10.6534
v  -8.6805 2.1458 -8.9905
v  -8.6805 1.5619 -9.3807
v  -8.6805 1.1717 -9.9646
v  -8.6805 1.0347 -10.6534
v  -8.3240 2.2594 -9.2646
v  -8.3240 1.7717 -9.5905
v  -8.3240 1.4458 -10.0782
v  -8.3240 1.3314 -10.6534
v  -7.7588 2.2678 -9.2849
v  -7.7588 1.7872 -9.6060
v  -7.7588 1.4661 -10.0866
v  -7.7588 1.3534 -10.6534
v  -5.7596 0.6631 -8.4819
v  -5.7596 1.6594 -7.8161
v  -5.7596 -0.0027 -9.4782
v  -5.1966 1.8016 -8.1595
v  -5.1966 0.9259 -8.7447
v  -5.1966 0.3407 -9.6204
v  -5.1966 0.1352 -10.6534
v  -5.7596 -0.2364 -10.6534
v  -7.9174 -0.0027 -11.8287
v  -8.4805 0.3407 -11.6865
v  -8.4805 0.9259 -12.5622
v  -7.9174 0.6631 -12.8250
v  -8.4805 1.8016 -13.1474
v  -7.9174 1.6594 -13.4908
v  -8.6805 1.1717 -11.3423
v  -8.6805 1.5619 -11.9262
v  -8.6805 2.1458 -12.3164
v  -8.3240 1.4458 -11.2287
v  -8.3240 1.7717 -11.7164
v  -8.3240 2.2594 -12.0423
v  -7.7588 1.4661 -11.2203
v  -7.7588 1.7872 -11.7009
v  -7.7588 2.2678 -12.0220
v  -5.7596 -0.0027 -11.8287
v  -5.7596 0.6631 -12.8250
v  -5.7596 1.6594 -13.4908
v  -5.1966 0.3407 -11.6865
v  -5.1966 0.9259 -12.5622
v  -5.1966 1.8016 -13.1474
# 114 vertices

vn -0.8020 0.2286 -0.5518
vn -0.2782 0.3676 -0.8874
vn -0.2782 -0.0000 -0.9605
vn -0.8020 -0.0000 -0.5973
vn -0.8020 0.4223 -0.4223
vn -0.2782 0.6792 -0.6792
vn -0.8020 0.5518 -0.2286
vn -0.2782 0.8874 -0.3676
vn -0.8020 0.5973 -0.0000
vn -0.2782 0.9605 -0.0000
vn -0.9761 -0.0000 -0.2172
vn -0.9761 0.0831 -0.2006
vn -0.9761 0.1535 -0.1535
vn -0.9761 0.2006 -0.0831
vn -0.9761 0.2172 -0.0000
vn -0.6397 0.0000 0.7687
vn -0.6397 -0.2941 0.7101
vn -0.6397 -0.0000 0.7687
vn -0.6397 -0.5435 0.5435
vn -0.6397 -0.7101 0.2941
vn -0.6397 -0.7102 0.2941
vn -0.6397 -0.7687 0.0000
vn -0.9382 0.0000 0.3461
vn -1.0000 0.0000 0.0000
vn -0.9382 -0.1324 0.3197
vn -0.9382 -0.2447 0.2447
vn -0.9382 -0.3197 0.1324
vn -0.9382 -0.3461 -0.0000
vn 0.2782 0.6792 -0.6792
vn 0.2782 0.3676 -0.8874
vn 0.2782 0.8874 -0.3676
vn 0.8639 0.1927 -0.4653
vn 0.8639 -0.0000 -0.5036
vn 0.2782 -0.0000 -0.9605
vn 0.8639 0.3561 -0.3561
vn 0.8639 0.4653 -0.1927
vn 0.2782 0.9605 -0.0000
vn 0.8639 0.5036 -0.0000
vn 1.0000 -0.0000 0.0000
vn -0.8020 0.5518 0.2286
vn -0.2782 0.8874 0.3676
vn -0.8020 0.4224 0.4223
vn -0.2782 0.6792 0.6792
vn -0.2782 0.3676 0.8874
vn -0.8020 0.2286 0.5518
vn -0.8020 -0.0000 0.5973
vn -0.2782 -0.0000 0.9605
vn -0.9761 0.2006 0.0831
vn -0.9761 0.1535 0.1535
vn -0.9761 0.0831 0.2006
vn -0.9761 -0.0000 0.2172
vn -0.6397 -0.7101 -0.2941
vn -0.6397 -0.5435 -0.5435
vn -0.6397 -0.2941 -0.7101
vn -0.6397 0.0000 -0.7687
vn -0.9382 -0.3197 -0.1324
vn -0.9382 -0.2447 -0.2447
vn -0.9382 -0.1324 -0.3197
vn -0.9382 0.0000 -0.3461
vn 0.2782 0.6792 0.6792
vn 0.2782 0.8874 0.3676
vn 0.2782 0.3676 0.8874
vn 0.8639 0.4653 0.1927
vn 0.8639 0.3561 0.3561
vn 0.8639 0.1927 0.4653
vn 0.2782 -0.0000 0.9605
vn 0.8639 -0.0000 0.5036
vn -0.8020 -0.2286 0.5518
vn -0.2782 -0.3676 0.8874
vn -0.8020 -0.4223 0.4223
vn -0.2782 -0.6792 0.6792
vn -0.8020 -0.5518 0.2286
vn -0.2782 -0.8874 0.3676
vn -0.8020 -0.5973 0.0000
vn -0.2782 -0.9605 0.0000
vn -0.9761 -0.0831 0.2006
vn -0.9761 -0.1535 0.1535
vn -0.9761 -0.2006 0.0831
vn -0.9761 -0.2172 0.0000
vn -0.6397 0.2941 -0.7101
vn -0.6397 0.5435 -0.5435
vn -0.6397 0.7101 -0.2941
vn -0.6397 0.7687 -0.0000
vn -0.9382 0.1324 -0.3197
vn -0.9382 0.2447 -0.2447
vn -0.9382 0.3197 -0.1324
vn -0.9382 0.3461 -0.0000
vn 0.2782 -0.6792 0.6792
vn 0.2782 -0.3676 0.8874
vn 0.2782 -0.8874 0.3676
vn 0.8639 -0.1927 0.4653
vn 0.8639 -0.3561 0.3561
vn 0.8639 -0.4653 0.1927
vn 0.8639 -0.5036 0.0000
vn 0.2782 -0.9605 0.0000
vn -0.2782 -0.8874 -0.3676
vn -0.8020 -0.5518 -0.2286
vn -0.8020 -0.4223 -0.4223
vn -0.2782 -0.6792 -0.6792
vn -0.8020 -0.2286 -0.5518
vn -0.2782 -0.3676 -0.8874
vn -0.9761 -0.2006 -0.0831
vn -0.9761 -0.1535 -0.1535
vn -0.9761 -0.0831 -0.2006
vn -0.6397 0.7101 0.2941
vn -0.6397 0.5435 0.5435
vn -0.6397 0.2941 0.7101
vn -0.9382 0.3197 0.1324
vn -0.9382 0.2447 0.2447
vn -0.9382 0.1324 0.3197
vn 0.2782 -0.8874 -0.3676
vn 0.2782 -0.6792 -0.6792
vn 0.2782 -0.3676 -0.8874
vn 0.8639 -0.4653 -0.1927
vn 0.8639 -0.3561 -0.3561
vn 0.8639 -0.1927 -0.4653
vn -0.0389 0.0000 0.9992
vn -0.0389 -0.3824 0.9232
vn -0.0389 -0.0000 0.9992
vn -0.0389 -0.7066 0.7066
vn -0.0389 -0.9232 0.3824
vn -0.0389 -0.9992 0.0000
vn -0.0389 -0.9232 -0.3824
vn -0.0389 -0.7066 -0.7066
vn -0.0389 -0.3824 -0.9232
vn -0.0389 0.0000 -0.9992
vn -0.0389 0.3824 -0.9232
vn -0.0389 0.7066 -0.7066
vn -0.0389 0.9232 -0.3824
vn -0.0389 0.9992 -0.0000
vn -0.0389 0.9232 0.3824
vn -0.0389 0.7066 0.7066
vn -0.0389 0.3824 0.9232
# 133 vertex normals

vt 0.5808 0.5757 0.0000
vt 0.5364 0.5869 0.0000
vt 0.5364 0.4943 0.0000
vt 0.5808 0.4943 0.0000
vt 0.1407 0.2382 0.0000
vt 0.1914 0.2365 0.0000
vt 0.1847 0.3264 0.0000
vt 0.1348 0.3172 0.0000
vt 0.1296 0.1640 0.0000
vt 0.1788 0.1521 0.0000
vt 0.1150 0.9195 0.0000
vt 0.0706 0.9083 0.0000
vt 0.0706 0.8270 0.0000
vt 0.1150 0.8270 0.0000
vt 0.8060 0.6576 0.0000
vt 0.7533 0.6578 0.0000
vt 0.7398 0.5916 0.0000
vt 0.8189 0.5913 0.0000
vt 0.6668 0.6222 0.0000
vt 0.7046 0.6782 0.0000
vt 0.6674 0.7157 0.0000
vt 0.6111 0.6783 0.0000
vt 0.6474 0.7645 0.0000
vt 0.5811 0.7516 0.0000
vt 0.2820 0.2466 0.0000
vt 0.2820 0.2926 0.0000
vt 0.2535 0.3017 0.0000
vt 0.2535 0.2466 0.0000
vt 0.7478 0.8246 0.0000
vt 0.7138 0.8168 0.0000
vt 0.7182 0.7730 0.0000
vt 0.7530 0.7721 0.0000
vt 0.7451 0.7224 0.0000
vt 0.7116 0.7315 0.0000
vt 0.9110 0.0450 0.0000
vt 0.9395 0.0541 0.0000
vt 0.9395 0.1001 0.0000
vt 0.9110 0.1001 0.0000
vt 0.4876 0.1051 0.0000
vt 0.4659 0.2166 0.0000
vt 0.4433 0.1053 0.0000
vt 0.4024 0.1224 0.0000
vt 0.3712 0.1539 0.0000
vt 0.3544 0.1949 0.0000
vt 0.5364 0.6653 0.0000
vt 0.3665 0.6653 0.0000
vt 0.3665 0.5869 0.0000
vt 0.2849 0.9195 0.0000
vt 0.2849 0.9980 0.0000
vt 0.1150 0.9980 0.0000
vt 0.3221 0.5757 0.0000
vt 0.3221 0.4943 0.0000
vt 0.3665 0.4943 0.0000
vt 0.7364 0.1799 0.0000
vt 0.7264 0.0903 0.0000
vt 0.7772 0.0902 0.0000
vt 0.7859 0.1689 0.0000
vt 0.7854 0.0156 0.0000
vt 0.7358 0.0055 0.0000
vt 0.3292 0.9083 0.0000
vt 0.2849 0.8270 0.0000
vt 0.3292 0.8270 0.0000
vt 0.7802 0.3845 0.0000
vt 0.7419 0.5811 0.0000
vt 0.6695 0.5515 0.0000
vt 0.6140 0.4964 0.0000
vt 0.5838 0.4243 0.0000
vt 0.5835 0.3462 0.0000
vt 0.0706 0.7456 0.0000
vt 0.1150 0.7344 0.0000
vt 0.2482 0.3264 0.0000
vt 0.1983 0.3174 0.0000
vt 0.2038 0.2384 0.0000
vt 0.2545 0.2365 0.0000
vt 0.2417 0.1521 0.0000
vt 0.1925 0.1642 0.0000
vt 0.1150 0.5869 0.0000
vt 0.0706 0.5757 0.0000
vt 0.0706 0.4943 0.0000
vt 0.1150 0.4943 0.0000
vt 0.6476 0.8173 0.0000
vt 0.5814 0.8307 0.0000
vt 0.6120 0.9037 0.0000
vt 0.6680 0.8659 0.0000
vt 0.6682 0.9594 0.0000
vt 0.7055 0.9031 0.0000
vt 0.7543 0.9231 0.0000
vt 0.7414 0.9894 0.0000
vt 0.9395 0.1461 0.0000
vt 0.9110 0.1552 0.0000
vt 0.8296 0.8246 0.0000
vt 0.7961 0.8153 0.0000
vt 0.8024 0.7717 0.0000
vt 0.8372 0.7724 0.0000
vt 0.7978 0.7299 0.0000
vt 0.8317 0.7224 0.0000
vt 0.0472 0.9119 0.0000
vt 0.0757 0.9119 0.0000
vt 0.0757 0.9670 0.0000
vt 0.0472 0.9579 0.0000
vt 0.3545 0.2392 0.0000
vt 0.3717 0.2801 0.0000
vt 0.4031 0.3113 0.0000
vt 0.4441 0.3281 0.0000
vt 0.2849 0.6559 0.0000
vt 0.2849 0.7344 0.0000
vt 0.1150 0.6559 0.0000
vt 0.2849 0.5869 0.0000
vt 0.2849 0.6653 0.0000
vt 0.1150 0.6653 0.0000
vt 0.3292 0.7456 0.0000
vt 0.0183 0.3264 0.0000
vt 0.0086 0.2368 0.0000
vt 0.0594 0.2368 0.0000
vt 0.0679 0.3155 0.0000
vt 0.0183 0.1520 0.0000
vt 0.0679 0.1622 0.0000
vt 0.2849 0.4943 0.0000
vt 0.3292 0.4943 0.0000
vt 0.3292 0.5757 0.0000
vt 0.6131 0.2738 0.0000
vt 0.6682 0.2183 0.0000
vt 0.7403 0.1881 0.0000
vt 0.8185 0.1878 0.0000
vt 0.0706 0.4129 0.0000
vt 0.1150 0.4017 0.0000
vt 0.8436 0.0148 0.0000
vt 0.8378 0.0938 0.0000
vt 0.7871 0.0955 0.0000
vt 0.7937 0.0056 0.0000
vt 0.8488 0.1680 0.0000
vt 0.7996 0.1799 0.0000
vt 0.3221 0.8270 0.0000
vt 0.3665 0.8270 0.0000
vt 0.3665 0.9195 0.0000
vt 0.3221 0.9083 0.0000
vt 0.8071 0.9229 0.0000
vt 0.8205 0.9891 0.0000
vt 0.8557 0.9025 0.0000
vt 0.8935 0.9585 0.0000
vt 0.8929 0.8650 0.0000
vt 0.9492 0.9024 0.0000
vt 0.9129 0.8162 0.0000
vt 0.9792 0.8291 0.0000
vt 0.0472 0.8659 0.0000
vt 0.0757 0.8568 0.0000
vt 0.7590 0.7224 0.0000
vt 0.7930 0.7301 0.0000
vt 0.7886 0.7739 0.0000
vt 0.7538 0.7749 0.0000
vt 0.7952 0.8155 0.0000
vt 0.7617 0.8246 0.0000
vt 0.0305 0.5792 0.0000
vt 0.0020 0.5792 0.0000
vt 0.0020 0.5241 0.0000
vt 0.0305 0.5332 0.0000
vt 0.4885 0.3279 0.0000
vt 0.5293 0.3108 0.0000
vt 0.5606 0.2793 0.0000
vt 0.5774 0.2383 0.0000
vt 0.2849 0.3233 0.0000
vt 0.2849 0.4017 0.0000
vt 0.1150 0.3233 0.0000
vt 0.5364 0.9195 0.0000
vt 0.5364 0.9980 0.0000
vt 0.3665 0.9980 0.0000
vt 0.3292 0.4129 0.0000
vt 0.1185 0.1520 0.0000
vt 0.1285 0.2415 0.0000
vt 0.0778 0.2417 0.0000
vt 0.0690 0.1630 0.0000
vt 0.1191 0.3264 0.0000
vt 0.0695 0.3163 0.0000
vt 0.5808 0.8270 0.0000
vt 0.5808 0.9083 0.0000
vt 0.5364 0.8270 0.0000
vt 0.8908 0.2174 0.0000
vt 0.9463 0.2725 0.0000
vt 0.9765 0.3446 0.0000
vt 0.9768 0.4228 0.0000
vt 0.3665 0.7344 0.0000
vt 0.3221 0.7456 0.0000
vt 0.8563 0.0056 0.0000
vt 0.9062 0.0146 0.0000
vt 0.9006 0.0936 0.0000
vt 0.8499 0.0955 0.0000
vt 0.9119 0.1678 0.0000
vt 0.8628 0.1799 0.0000
vt 0.5808 0.4129 0.0000
vt 0.5364 0.4017 0.0000
vt 0.9127 0.7634 0.0000
vt 0.9789 0.7500 0.0000
vt 0.8923 0.7148 0.0000
vt 0.9483 0.6770 0.0000
vt 0.8549 0.6776 0.0000
vt 0.8922 0.6213 0.0000
vt 0.0305 0.6252 0.0000
vt 0.0020 0.6343 0.0000
vt 0.5704 0.0549 0.0000
vt 0.5356 0.0542 0.0000
vt 0.5433 0.0020 0.0000
vt 0.5768 0.0113 0.0000
vt 0.5751 0.0966 0.0000
vt 0.5412 0.1042 0.0000
vt 0.2535 0.1914 0.0000
vt 0.2820 0.2005 0.0000
vt 0.5772 0.1940 0.0000
vt 0.5601 0.1531 0.0000
vt 0.5286 0.1219 0.0000
vt 0.5364 0.7344 0.0000
vt 0.3665 0.6559 0.0000
vt 0.5364 0.6559 0.0000
vt 0.3665 0.4017 0.0000
vt 0.3665 0.3233 0.0000
vt 0.5364 0.3233 0.0000
vt 0.5808 0.7456 0.0000
vt 0.7253 0.0951 0.0000
vt 0.6746 0.0951 0.0000
vt 0.6661 0.0163 0.0000
vt 0.7156 0.0055 0.0000
vt 0.7156 0.1799 0.0000
vt 0.6661 0.1696 0.0000
vt 0.3221 0.4129 0.0000
vt 0.9472 0.4951 0.0000
vt 0.8921 0.5506 0.0000
vt 0.8200 0.5808 0.0000
vt 0.3273 0.2466 0.0000
vt 0.3273 0.2919 0.0000
vt 0.3273 0.3303 0.0000
vt 0.2820 0.3316 0.0000
vt 0.9395 0.0151 0.0000
vt 0.9847 0.0163 0.0000
vt 0.9847 0.0547 0.0000
vt 0.9847 0.1001 0.0000
vt 0.9847 0.1454 0.0000
vt 0.9395 0.1851 0.0000
vt 0.9847 0.1839 0.0000
vt 0.0020 0.9572 0.0000
vt 0.0472 0.9969 0.0000
vt 0.0020 0.9957 0.0000
vt 0.0020 0.9119 0.0000
vt 0.0020 0.8665 0.0000
vt 0.0020 0.8281 0.0000
vt 0.0472 0.8268 0.0000
vt 0.0757 0.5339 0.0000
vt 0.0305 0.4942 0.0000
vt 0.0757 0.4954 0.0000
vt 0.0757 0.5792 0.0000
vt 0.0757 0.6246 0.0000
vt 0.0757 0.6630 0.0000
vt 0.0305 0.6642 0.0000
vt 0.3273 0.2012 0.0000
vt 0.2820 0.1615 0.0000
vt 0.3273 0.1628 0.0000
# 254 texture coords

g Camaro_Warrior_Wheel02
usemtl 08___Default
s off
f 1/1/1 2/2/2 3/3/3 
f 3/3/3 4/4/4 1/1/1 
f 5/5/5 6/6/6 2/7/2 
f 2/7/2 1/8/1 5/5/5 
f 7/9/7 8/10/8 6/6/6 
f 6/6/6 5/5/5 7/9/7 
f 8/11/8 7/12/7 9/13/9 
f 9/13/9 10/14/10 8/11/8 
f 11/15/11 12/16/12 1/17/1 
f 1/17/1 4/18/4 11/15/11 
f 5/19/5 1/17/1 12/16/12 
f 12/16/12 13/20/13 5/19/5 
f 14/21/14 7/22/7 5/19/5 
f 5/19/5 13/20/13 14/21/14 
f 14/21/14 15/23/15 9/24/9 
f 9/24/9 7/22/7 14/21/14 
f 16/25/16 17/26/17 12/27/17 
f 12/27/17 11/28/18 16/25/16 
f 12/29/17 17/30/17 18/31/19 
f 18/31/19 13/32/19 12/29/17 
f 14/33/20 13/32/19 18/31/19 
f 18/31/19 19/34/21 14/33/20 
f 14/35/20 19/36/21 20/37/22 
f 20/37/22 15/38/22 14/35/20 
f 21/39/23 22/40/24 23/41/25 
f 23/41/25 22/40/24 24/42/26 
f 24/42/26 22/40/24 25/43/27 
f 25/43/27 22/40/24 26/44/28 
f 2/2/2 6/45/6 27/46/29 
f 27/46/29 28/47/30 2/2/2 
f 29/48/31 27/49/29 6/50/6 
f 6/50/6 8/11/8 29/48/31 
f 28/47/30 30/51/32 31/52/33 
f 31/52/33 32/53/34 28/47/30 
f 28/54/30 27/55/29 33/56/35 
f 33/56/35 30/57/32 28/54/30 
f 34/58/36 33/56/35 27/55/29 
f 27/55/29 29/59/31 34/58/36 
f 34/60/36 29/48/31 35/61/37 
f 35/61/37 36/62/38 34/60/36 
f 37/63/39 31/64/33 30/65/32 
f 37/63/39 30/65/32 33/66/35 
f 37/63/39 33/66/35 34/67/36 
f 37/63/39 34/67/36 36/68/38 
f 32/53/34 3/3/3 2/2/2 
f 2/2/2 28/47/30 32/53/34 
f 29/48/31 8/11/8 10/14/10 
f 10/14/10 35/61/37 29/48/31 
f 38/69/40 39/70/41 10/14/10 
f 10/14/10 9/13/9 38/69/40 
f 39/71/41 38/72/40 40/73/42 
f 40/73/42 41/74/43 39/71/41 
f 42/75/44 41/74/43 40/73/42 
f 40/73/42 43/76/45 42/75/44 
f 42/77/44 43/78/45 44/79/46 
f 44/79/46 45/80/47 42/77/44 
f 46/81/48 38/82/40 9/24/9 
f 9/24/9 15/23/15 46/81/48 
f 40/83/42 38/82/40 46/81/48 
f 46/81/48 47/84/49 40/83/42 
f 43/85/45 40/83/42 47/84/49 
f 47/84/49 48/86/50 43/85/45 
f 49/87/51 44/88/46 43/85/45 
f 43/85/45 48/86/50 49/87/51 
f 15/38/22 20/37/22 50/89/52 
f 50/89/52 46/90/52 15/38/22 
f 46/91/52 50/92/52 51/93/53 
f 51/93/53 47/94/53 46/91/52 
f 51/93/53 52/95/54 48/96/54 
f 48/96/54 47/94/53 51/93/53 
f 53/97/55 49/98/55 48/99/54 
f 48/99/54 52/100/54 53/97/55 
f 26/44/28 22/40/24 54/101/56 
f 54/101/56 22/40/24 55/102/57 
f 55/102/57 22/40/24 56/103/58 
f 56/103/58 22/40/24 57/104/59 
f 58/105/60 59/106/61 39/70/41 
f 39/70/41 41/107/43 58/105/60 
f 60/108/62 58/109/60 41/110/43 
f 41/110/43 42/77/44 60/108/62 
f 61/111/63 36/62/38 35/61/37 
f 35/61/37 59/106/61 61/111/63 
f 59/112/61 58/113/60 62/114/64 
f 62/114/64 61/115/63 59/112/61 
f 60/116/62 63/117/65 62/114/64 
f 62/114/64 58/113/60 60/116/62 
f 64/118/66 65/119/67 63/120/65 
f 63/120/65 60/108/62 64/118/66 
f 37/63/39 36/68/38 61/121/63 
f 37/63/39 61/121/63 62/122/64 
f 37/63/39 62/122/64 63/123/65 
f 37/63/39 63/123/65 65/124/67 
f 39/70/41 59/106/61 35/61/37 
f 35/61/37 10/14/10 39/70/41 
f 64/118/66 60/108/62 42/77/44 
f 42/77/44 45/80/47 64/118/66 
f 66/125/68 67/126/69 45/80/47 
f 45/80/47 44/79/46 66/125/68 
f 66/127/68 68/128/70 69/129/71 
f 69/129/71 67/130/69 66/127/68 
f 68/128/70 70/131/72 71/132/73 
f 71/132/73 69/129/71 68/128/70 
f 72/133/74 73/134/75 71/135/73 
f 71/135/73 70/136/72 72/133/74 
f 49/87/51 74/137/76 66/138/68 
f 66/138/68 44/88/46 49/87/51 
f 66/138/68 74/137/76 75/139/77 
f 75/139/77 68/140/70 66/138/68 
f 76/141/78 70/142/72 68/140/70 
f 68/140/70 75/139/77 76/141/78 
f 77/143/79 72/144/74 70/142/72 
f 70/142/72 76/141/78 77/143/79 
f 49/98/55 53/97/55 78/145/80 
f 78/145/80 74/146/80 49/98/55 
f 74/147/80 78/148/80 79/149/81 
f 79/149/81 75/150/81 74/147/80 
f 80/151/82 76/152/82 75/150/81 
f 75/150/81 79/149/81 80/151/82 
f 81/153/83 77/154/83 76/155/82 
f 76/155/82 80/156/82 81/153/83 
f 57/104/59 22/40/24 82/157/84 
f 82/157/84 22/40/24 83/158/85 
f 83/158/85 22/40/24 84/159/86 
f 84/159/86 22/40/24 85/160/87 
f 86/161/88 87/162/89 67/126/69 
f 67/126/69 69/163/71 86/161/88 
f 88/164/90 86/165/88 69/166/71 
f 69/166/71 71/135/73 88/164/90 
f 64/118/66 87/162/89 89/167/91 
f 89/167/91 65/119/67 64/118/66 
f 87/168/89 86/169/88 90/170/92 
f 90/170/92 89/171/91 87/168/89 
f 88/172/90 91/173/93 90/170/92 
f 90/170/92 86/169/88 88/172/90 
f 92/174/94 91/175/93 88/164/90 
f 88/164/90 93/176/95 92/174/94 
f 37/63/39 65/124/67 89/177/91 
f 37/63/39 89/177/91 90/178/92 
f 37/63/39 90/178/92 91/179/93 
f 37/63/39 91/179/93 92/180/94 
f 64/118/66 45/80/47 67/126/69 
f 67/126/69 87/162/89 64/118/66 
f 71/135/73 73/134/75 93/176/95 
f 93/176/95 88/164/90 71/135/73 
f 94/181/96 73/134/75 72/133/74 
f 72/133/74 95/182/97 94/181/96 
f 94/183/96 95/184/97 96/185/98 
f 96/185/98 97/186/99 94/183/96 
f 98/187/100 99/188/101 97/186/99 
f 97/186/99 96/185/98 98/187/100 
f 98/189/100 4/4/4 3/3/3 
f 3/3/3 99/190/101 98/189/100 
f 72/144/74 77/143/79 100/191/102 
f 100/191/102 95/192/97 72/144/74 
f 95/192/97 100/191/102 101/193/103 
f 101/193/103 96/194/98 95/192/97 
f 96/194/98 101/193/103 102/195/104 
f 102/195/104 98/196/100 96/194/98 
f 11/15/11 4/18/4 98/196/100 
f 98/196/100 102/195/104 11/15/11 
f 81/153/83 103/197/105 100/198/105 
f 100/198/105 77/154/83 81/153/83 
f 104/199/106 101/200/106 100/201/105 
f 100/201/105 103/202/105 104/199/106 
f 105/203/107 102/204/107 101/200/106 
f 101/200/106 104/199/106 105/203/107 
f 102/205/107 105/206/107 16/25/16 
f 16/25/16 11/28/18 102/205/107 
f 85/160/87 22/40/24 106/207/108 
f 106/207/108 22/40/24 107/208/109 
f 107/208/109 22/40/24 108/209/110 
f 108/209/110 22/40/24 21/39/23 
f 109/210/111 94/181/96 97/211/99 
f 97/211/99 110/212/112 109/210/111 
f 99/190/101 111/213/113 110/214/112 
f 110/214/112 97/215/99 99/190/101 
f 112/216/114 92/174/94 93/176/95 
f 93/176/95 109/210/111 112/216/114 
f 110/217/112 113/218/115 112/219/114 
f 112/219/114 109/220/111 110/217/112 
f 113/218/115 110/217/112 111/221/113 
f 111/221/113 114/222/116 113/218/115 
f 31/52/33 114/223/116 111/213/113 
f 111/213/113 32/53/34 31/52/33 
f 37/63/39 92/180/94 112/224/114 
f 37/63/39 112/224/114 113/225/115 
f 37/63/39 113/225/115 114/226/116 
f 37/63/39 114/226/116 31/64/33 
f 94/181/96 109/210/111 93/176/95 
f 93/176/95 73/134/75 94/181/96 
f 99/190/101 3/3/3 32/53/34 
f 32/53/34 111/213/113 99/190/101 
f 21/227/117 23/228/118 17/26/118 
f 17/26/118 16/25/119 21/227/117 
f 17/26/118 23/228/118 24/229/120 
f 24/229/120 18/230/120 17/26/118 
f 18/231/120 24/232/120 25/233/121 
f 25/233/121 19/36/121 18/231/120 
f 26/234/122 20/37/122 19/36/121 
f 19/36/121 25/233/121 26/234/122 
f 54/235/123 50/89/123 20/37/122 
f 20/37/122 26/234/122 54/235/123 
f 51/236/124 50/89/123 54/235/123 
f 54/235/123 55/237/124 51/236/124 
f 56/238/125 52/100/125 51/239/124 
f 51/239/124 55/240/124 56/238/125 
f 53/97/126 52/100/125 56/238/125 
f 56/238/125 57/241/126 53/97/126 
f 53/97/126 57/241/126 82/242/127 
f 82/242/127 78/145/127 53/97/126 
f 78/145/127 82/242/127 83/243/128 
f 83/243/128 79/244/128 78/145/127 
f 84/245/129 80/156/129 79/246/128 
f 79/246/128 83/247/128 84/245/129 
f 81/153/130 80/156/129 84/245/129 
f 84/245/129 85/248/130 81/153/130 
f 103/197/131 81/153/130 85/248/130 
f 85/248/130 106/249/131 103/197/131 
f 106/249/131 107/250/132 104/251/132 
f 104/251/132 103/197/131 106/249/131 
f 108/252/133 105/206/133 104/253/132 
f 104/253/132 107/254/132 108/252/133 
f 21/227/117 16/25/119 105/206/133 
f 105/206/133 108/252/133 21/227/117 
# 224 faces

