# 3ds Max Wavefront OBJ Exporter v0.97b - (c)2007 guruware
# File Created: 19.03.2017 15:27:33

mtllib rearLeftWheel.mtl

#
# object Camaro_Warrior_RearLeft
#

v  -8.4805 3.8677 10.2468
v  -7.9174 4.0099 9.9034
v  -7.9174 2.8346 9.6696
v  -8.4805 2.8346 10.0413
v  -8.4805 4.7434 10.8319
v  -7.9174 5.0062 10.5691
v  -8.4805 5.3286 11.7077
v  -7.9174 5.6720 11.5655
v  -8.4805 5.5341 12.7407
v  -7.9174 5.9057 12.7407
v  -8.6805 2.8346 10.9407
v  -8.6805 3.5235 11.0777
v  -8.6805 4.1074 11.4679
v  -8.6805 4.4976 12.0519
v  -8.6805 4.6346 12.7407
v  -8.3240 2.8346 11.2374
v  -8.3240 3.4099 11.3519
v  -8.3240 3.8976 11.6777
v  -8.3240 4.2235 12.1654
v  -8.3240 4.3379 12.7407
v  -7.7588 2.8346 11.2594
v  -7.2123 2.8346 12.7407
v  -7.7588 3.4015 11.3722
v  -7.7588 3.8821 11.6933
v  -7.7588 4.2032 12.1739
v  -7.7588 4.3159 12.7407
v  -5.7596 5.0062 10.5691
v  -5.7596 4.0099 9.9034
v  -5.7596 5.6720 11.5655
v  -5.1966 3.8677 10.2468
v  -5.1966 2.8346 10.0413
v  -5.7596 2.8346 9.6696
v  -5.1966 4.7434 10.8319
v  -5.1966 5.3286 11.7077
v  -5.7596 5.9057 12.7407
v  -5.1966 5.5341 12.7407
v  -5.2936 2.8346 12.7407
v  -8.4805 5.3286 13.7737
v  -7.9174 5.6720 13.9160
v  -8.4805 4.7434 14.6495
v  -7.9174 5.0062 14.9123
v  -7.9174 4.0099 15.5780
v  -8.4805 3.8677 15.2347
v  -8.4805 2.8346 15.4401
v  -7.9174 2.8346 15.8118
v  -8.6805 4.4976 13.4295
v  -8.6805 4.1074 14.0135
v  -8.6805 3.5235 14.4037
v  -8.6805 2.8346 14.5407
v  -8.3240 4.2235 13.3160
v  -8.3240 3.8976 13.8037
v  -8.3240 3.4099 14.1296
v  -8.3240 2.8346 14.2440
v  -7.7588 4.2032 13.3076
v  -7.7588 3.8821 13.7881
v  -7.7588 3.4015 14.1092
v  -7.7588 2.8346 14.2220
v  -5.7596 5.0062 14.9123
v  -5.7596 5.6720 13.9160
v  -5.7596 4.0099 15.5780
v  -5.1966 5.3286 13.7737
v  -5.1966 4.7434 14.6495
v  -5.1966 3.8677 15.2347
v  -5.7596 2.8346 15.8118
v  -5.1966 2.8346 15.4401
v  -8.4805 1.8016 15.2347
v  -7.9174 1.6594 15.5780
v  -8.4805 0.9259 14.6495
v  -7.9174 0.6631 14.9123
v  -8.4805 0.3407 13.7737
v  -7.9174 -0.0027 13.9160
v  -8.4805 0.1352 12.7407
v  -7.9174 -0.2364 12.7407
v  -8.6805 2.1458 14.4037
v  -8.6805 1.5619 14.0135
v  -8.6805 1.1717 13.4295
v  -8.6805 1.0347 12.7407
v  -8.3240 2.2594 14.1296
v  -8.3240 1.7717 13.8037
v  -8.3240 1.4458 13.3160
v  -8.3240 1.3314 12.7407
v  -7.7588 2.2678 14.1092
v  -7.7588 1.7872 13.7881
v  -7.7588 1.4661 13.3076
v  -7.7588 1.3534 12.7407
v  -5.7596 0.6631 14.9123
v  -5.7596 1.6594 15.5780
v  -5.7596 -0.0027 13.9160
v  -5.1966 1.8016 15.2347
v  -5.1966 0.9259 14.6495
v  -5.1966 0.3407 13.7737
v  -5.1966 0.1352 12.7407
v  -5.7596 -0.2364 12.7407
v  -7.9174 -0.0027 11.5655
v  -8.4805 0.3407 11.7077
v  -8.4805 0.9259 10.8319
v  -7.9174 0.6631 10.5691
v  -8.4805 1.8016 10.2468
v  -7.9174 1.6594 9.9034
v  -8.6805 1.1717 12.0519
v  -8.6805 1.5619 11.4679
v  -8.6805 2.1458 11.0777
v  -8.3240 1.4458 12.1654
v  -8.3240 1.7717 11.6777
v  -8.3240 2.2594 11.3519
v  -7.7588 1.4661 12.1739
v  -7.7588 1.7872 11.6933
v  -7.7588 2.2678 11.3722
v  -5.7596 -0.0027 11.5655
v  -5.7596 0.6631 10.5691
v  -5.7596 1.6594 9.9034
v  -5.1966 0.3407 11.7077
v  -5.1966 0.9259 10.8319
v  -5.1966 1.8016 10.2468
# 114 vertices

vn -0.5435 0.1638 -0.8233
vn -0.5435 0.4664 -0.6980
vn -0.5435 0.6980 -0.4664
vn -0.5435 0.8233 -0.1638
vn -0.9752 0.0432 -0.2169
vn -0.9752 0.1229 -0.1839
vn -0.9752 0.1839 -0.1229
vn -0.9752 0.2169 -0.0432
vn -0.6323 -0.1511 0.7598
vn -0.6323 -0.4304 0.6441
vn -0.6323 -0.6441 0.4304
vn -0.6323 -0.7598 0.1511
vn -0.9360 -0.0687 0.3453
vn -0.9360 -0.1956 0.2927
vn -0.9360 -0.2927 0.1956
vn -0.9360 -0.3453 0.0687
vn 0.0000 0.5556 -0.8315
vn 0.0000 0.8315 -0.5556
vn 0.5435 0.1638 -0.8233
vn 0.5435 0.4664 -0.6980
vn 0.5435 0.6980 -0.4664
vn 0.5435 0.8233 -0.1638
vn 0.9993 -0.0071 0.0359
vn 0.9993 -0.0203 0.0305
vn 0.9993 -0.0305 0.0203
vn 0.9993 -0.0359 0.0071
vn 0.0000 0.1951 -0.9808
vn 0.0000 0.9808 -0.1951
vn -0.5435 0.8233 0.1638
vn -0.5435 0.6980 0.4664
vn -0.5435 0.4664 0.6980
vn -0.5435 0.1638 0.8233
vn -0.9752 0.2169 0.0432
vn -0.9752 0.1839 0.1229
vn -0.9752 0.1229 0.1839
vn -0.9752 0.0432 0.2169
vn -0.6323 -0.7598 -0.1511
vn -0.6323 -0.6441 -0.4304
vn -0.6323 -0.4304 -0.6441
vn -0.6323 -0.1511 -0.7598
vn -0.9360 -0.3453 -0.0687
vn -0.9360 -0.2927 -0.1956
vn -0.9360 -0.1956 -0.2927
vn -0.9360 -0.0687 -0.3453
vn 0.0000 0.8315 0.5556
vn 0.0000 0.5556 0.8315
vn 0.5435 0.8233 0.1638
vn 0.5435 0.6980 0.4664
vn 0.5435 0.4664 0.6980
vn 0.5435 0.1638 0.8233
vn 0.9993 -0.0359 -0.0071
vn 0.9993 -0.0305 -0.0203
vn 0.9993 -0.0203 -0.0305
vn 0.9993 -0.0071 -0.0359
vn 0.0000 0.9808 0.1951
vn 0.0000 0.1951 0.9808
vn -0.5435 -0.1638 0.8233
vn -0.5435 -0.4664 0.6980
vn -0.5435 -0.6980 0.4664
vn -0.5435 -0.8233 0.1638
vn -0.9752 -0.0432 0.2169
vn -0.9752 -0.1229 0.1839
vn -0.9752 -0.1839 0.1229
vn -0.9752 -0.2169 0.0432
vn -0.6323 0.1511 -0.7598
vn -0.6323 0.4304 -0.6441
vn -0.6323 0.6441 -0.4304
vn -0.6323 0.7598 -0.1511
vn -0.9360 0.0687 -0.3453
vn -0.9360 0.1956 -0.2927
vn -0.9360 0.2927 -0.1956
vn -0.9360 0.3453 -0.0687
vn -0.0000 -0.5556 0.8315
vn -0.0000 -0.8315 0.5556
vn 0.5435 -0.1638 0.8233
vn 0.5435 -0.4664 0.6980
vn 0.5435 -0.6980 0.4664
vn 0.5435 -0.8233 0.1638
vn 0.9993 0.0071 -0.0359
vn 0.9993 0.0203 -0.0305
vn 0.9993 0.0305 -0.0203
vn 0.9993 0.0359 -0.0071
vn -0.0000 -0.1951 0.9808
vn -0.0000 -0.9808 0.1951
vn -0.5435 -0.8233 -0.1638
vn -0.5435 -0.6980 -0.4664
vn -0.5435 -0.4664 -0.6980
vn -0.5435 -0.1638 -0.8233
vn -0.9752 -0.2169 -0.0432
vn -0.9752 -0.1839 -0.1229
vn -0.9752 -0.1229 -0.1839
vn -0.9752 -0.0432 -0.2169
vn -0.6323 0.7598 0.1511
vn -0.6323 0.6441 0.4304
vn -0.6323 0.4304 0.6441
vn -0.6323 0.1511 0.7598
vn -0.9360 0.3453 0.0687
vn -0.9360 0.2927 0.1956
vn -0.9360 0.1956 0.2927
vn -0.9360 0.0687 0.3453
vn -0.0000 -0.8315 -0.5556
vn -0.0000 -0.5556 -0.8315
vn 0.5435 -0.8233 -0.1638
vn 0.5435 -0.6980 -0.4664
vn 0.5435 -0.4664 -0.6980
vn 0.5435 -0.1638 -0.8233
vn 0.9993 0.0359 0.0071
vn 0.9993 0.0305 0.0203
vn 0.9993 0.0203 0.0305
vn 0.9993 0.0071 0.0359
vn -0.0000 -0.9808 -0.1951
vn -0.0000 -0.1951 -0.9808
vn -0.0382 -0.1949 0.9801
vn -0.0382 -0.5552 0.8309
vn -0.0382 -0.8309 0.5552
vn -0.0382 -0.9801 0.1949
vn -0.0382 -0.9801 -0.1949
vn -0.0382 -0.8309 -0.5552
vn -0.0382 -0.5552 -0.8309
vn -0.0382 -0.1949 -0.9801
vn -0.0382 0.1949 -0.9801
vn -0.0382 0.5552 -0.8309
vn -0.0382 0.8309 -0.5552
vn -0.0382 0.9801 -0.1949
vn -0.0382 0.9801 0.1949
vn -0.0382 0.8309 0.5552
vn -0.0382 0.5552 0.8309
vn -0.0382 0.1949 0.9801
# 128 vertex normals

vt 0.5808 0.5757 0.0000
vt 0.5364 0.5869 0.0000
vt 0.5364 0.4943 0.0000
vt 0.5808 0.4943 0.0000
vt 0.1407 0.2382 0.0000
vt 0.1914 0.2365 0.0000
vt 0.1847 0.3264 0.0000
vt 0.1348 0.3172 0.0000
vt 0.1296 0.1640 0.0000
vt 0.1788 0.1521 0.0000
vt 0.1150 0.9195 0.0000
vt 0.0706 0.9083 0.0000
vt 0.0706 0.8270 0.0000
vt 0.1150 0.8270 0.0000
vt 0.8060 0.6576 0.0000
vt 0.7533 0.6578 0.0000
vt 0.7398 0.5916 0.0000
vt 0.8189 0.5913 0.0000
vt 0.6668 0.6222 0.0000
vt 0.7046 0.6782 0.0000
vt 0.6674 0.7157 0.0000
vt 0.6111 0.6783 0.0000
vt 0.6474 0.7645 0.0000
vt 0.5811 0.7516 0.0000
vt 0.2820 0.2466 0.0000
vt 0.2820 0.2926 0.0000
vt 0.2535 0.3017 0.0000
vt 0.2535 0.2466 0.0000
vt 0.7478 0.8246 0.0000
vt 0.7138 0.8168 0.0000
vt 0.7182 0.7730 0.0000
vt 0.7530 0.7721 0.0000
vt 0.7451 0.7224 0.0000
vt 0.7116 0.7315 0.0000
vt 0.9110 0.0450 0.0000
vt 0.9395 0.0541 0.0000
vt 0.9395 0.1001 0.0000
vt 0.9110 0.1001 0.0000
vt 0.4876 0.1051 0.0000
vt 0.4659 0.2166 0.0000
vt 0.4433 0.1053 0.0000
vt 0.4024 0.1224 0.0000
vt 0.3712 0.1539 0.0000
vt 0.3544 0.1949 0.0000
vt 0.5364 0.6653 0.0000
vt 0.3665 0.6653 0.0000
vt 0.3665 0.5869 0.0000
vt 0.2849 0.9195 0.0000
vt 0.2849 0.9980 0.0000
vt 0.1150 0.9980 0.0000
vt 0.3221 0.5757 0.0000
vt 0.3221 0.4943 0.0000
vt 0.3665 0.4943 0.0000
vt 0.7364 0.1799 0.0000
vt 0.7264 0.0903 0.0000
vt 0.7772 0.0902 0.0000
vt 0.7859 0.1689 0.0000
vt 0.7854 0.0156 0.0000
vt 0.7358 0.0055 0.0000
vt 0.3292 0.9083 0.0000
vt 0.2849 0.8270 0.0000
vt 0.3292 0.8270 0.0000
vt 0.7802 0.3845 0.0000
vt 0.7419 0.5811 0.0000
vt 0.6695 0.5515 0.0000
vt 0.6140 0.4964 0.0000
vt 0.5838 0.4243 0.0000
vt 0.5835 0.3462 0.0000
vt 0.0706 0.7456 0.0000
vt 0.1150 0.7344 0.0000
vt 0.2482 0.3264 0.0000
vt 0.1983 0.3174 0.0000
vt 0.2038 0.2384 0.0000
vt 0.2545 0.2365 0.0000
vt 0.2417 0.1521 0.0000
vt 0.1925 0.1642 0.0000
vt 0.1150 0.5869 0.0000
vt 0.0706 0.5757 0.0000
vt 0.0706 0.4943 0.0000
vt 0.1150 0.4943 0.0000
vt 0.6476 0.8173 0.0000
vt 0.5814 0.8307 0.0000
vt 0.6120 0.9037 0.0000
vt 0.6680 0.8659 0.0000
vt 0.6682 0.9594 0.0000
vt 0.7055 0.9031 0.0000
vt 0.7543 0.9231 0.0000
vt 0.7414 0.9894 0.0000
vt 0.9395 0.1461 0.0000
vt 0.9110 0.1552 0.0000
vt 0.8296 0.8246 0.0000
vt 0.7961 0.8153 0.0000
vt 0.8024 0.7717 0.0000
vt 0.8372 0.7724 0.0000
vt 0.7978 0.7299 0.0000
vt 0.8317 0.7224 0.0000
vt 0.0472 0.9119 0.0000
vt 0.0757 0.9119 0.0000
vt 0.0757 0.9670 0.0000
vt 0.0472 0.9579 0.0000
vt 0.3545 0.2392 0.0000
vt 0.3717 0.2801 0.0000
vt 0.4031 0.3113 0.0000
vt 0.4441 0.3281 0.0000
vt 0.2849 0.6559 0.0000
vt 0.2849 0.7344 0.0000
vt 0.1150 0.6559 0.0000
vt 0.2849 0.5869 0.0000
vt 0.2849 0.6653 0.0000
vt 0.1150 0.6653 0.0000
vt 0.3292 0.7456 0.0000
vt 0.6757 0.1799 0.0000
vt 0.6661 0.0903 0.0000
vt 0.7168 0.0903 0.0000
vt 0.7253 0.1691 0.0000
vt 0.6758 0.0055 0.0000
vt 0.7253 0.0158 0.0000
vt 0.2849 0.4943 0.0000
vt 0.3292 0.4943 0.0000
vt 0.3292 0.5757 0.0000
vt 0.6131 0.2738 0.0000
vt 0.6682 0.2183 0.0000
vt 0.7403 0.1881 0.0000
vt 0.8185 0.1878 0.0000
vt 0.0706 0.4129 0.0000
vt 0.1150 0.4017 0.0000
vt 0.8436 0.0148 0.0000
vt 0.8378 0.0938 0.0000
vt 0.7871 0.0955 0.0000
vt 0.7937 0.0056 0.0000
vt 0.8488 0.1680 0.0000
vt 0.7996 0.1799 0.0000
vt 0.3221 0.8270 0.0000
vt 0.3665 0.8270 0.0000
vt 0.3665 0.9195 0.0000
vt 0.3221 0.9083 0.0000
vt 0.8071 0.9229 0.0000
vt 0.8205 0.9891 0.0000
vt 0.8557 0.9025 0.0000
vt 0.8935 0.9585 0.0000
vt 0.8929 0.8650 0.0000
vt 0.9492 0.9024 0.0000
vt 0.9129 0.8162 0.0000
vt 0.9792 0.8291 0.0000
vt 0.0472 0.8659 0.0000
vt 0.0757 0.8568 0.0000
vt 0.7590 0.7224 0.0000
vt 0.7930 0.7301 0.0000
vt 0.7886 0.7739 0.0000
vt 0.7538 0.7749 0.0000
vt 0.7952 0.8155 0.0000
vt 0.7617 0.8246 0.0000
vt 0.0305 0.5792 0.0000
vt 0.0020 0.5792 0.0000
vt 0.0020 0.5241 0.0000
vt 0.0305 0.5332 0.0000
vt 0.4885 0.3279 0.0000
vt 0.5293 0.3108 0.0000
vt 0.5606 0.2793 0.0000
vt 0.5774 0.2383 0.0000
vt 0.2849 0.3233 0.0000
vt 0.2849 0.4017 0.0000
vt 0.1150 0.3233 0.0000
vt 0.5364 0.9195 0.0000
vt 0.5364 0.9980 0.0000
vt 0.3665 0.9980 0.0000
vt 0.3292 0.4129 0.0000
vt 0.1185 0.1520 0.0000
vt 0.1285 0.2415 0.0000
vt 0.0778 0.2417 0.0000
vt 0.0690 0.1630 0.0000
vt 0.1191 0.3264 0.0000
vt 0.0695 0.3163 0.0000
vt 0.5808 0.8270 0.0000
vt 0.5808 0.9083 0.0000
vt 0.5364 0.8270 0.0000
vt 0.8908 0.2174 0.0000
vt 0.9463 0.2725 0.0000
vt 0.9765 0.3446 0.0000
vt 0.9768 0.4228 0.0000
vt 0.3665 0.7344 0.0000
vt 0.3221 0.7456 0.0000
vt 0.8563 0.0056 0.0000
vt 0.9062 0.0146 0.0000
vt 0.9006 0.0936 0.0000
vt 0.8499 0.0955 0.0000
vt 0.9119 0.1678 0.0000
vt 0.8628 0.1799 0.0000
vt 0.5808 0.4129 0.0000
vt 0.5364 0.4017 0.0000
vt 0.9127 0.7634 0.0000
vt 0.9789 0.7500 0.0000
vt 0.8923 0.7148 0.0000
vt 0.9483 0.6770 0.0000
vt 0.8549 0.6776 0.0000
vt 0.8922 0.6213 0.0000
vt 0.0305 0.6252 0.0000
vt 0.0020 0.6343 0.0000
vt 0.5704 0.0549 0.0000
vt 0.5356 0.0542 0.0000
vt 0.5433 0.0020 0.0000
vt 0.5768 0.0113 0.0000
vt 0.5751 0.0966 0.0000
vt 0.5412 0.1042 0.0000
vt 0.2535 0.1914 0.0000
vt 0.2820 0.2005 0.0000
vt 0.5772 0.1940 0.0000
vt 0.5601 0.1531 0.0000
vt 0.5286 0.1219 0.0000
vt 0.5364 0.7344 0.0000
vt 0.3665 0.6559 0.0000
vt 0.5364 0.6559 0.0000
vt 0.3665 0.4017 0.0000
vt 0.3665 0.3233 0.0000
vt 0.5364 0.3233 0.0000
vt 0.5808 0.7456 0.0000
vt 0.0679 0.2416 0.0000
vt 0.0172 0.2416 0.0000
vt 0.0087 0.1628 0.0000
vt 0.0582 0.1520 0.0000
vt 0.0582 0.3264 0.0000
vt 0.0086 0.3161 0.0000
vt 0.3221 0.4129 0.0000
vt 0.9472 0.4951 0.0000
vt 0.8921 0.5506 0.0000
vt 0.8200 0.5808 0.0000
vt 0.3273 0.2466 0.0000
vt 0.3273 0.2919 0.0000
vt 0.3273 0.3303 0.0000
vt 0.2820 0.3316 0.0000
vt 0.9395 0.0151 0.0000
vt 0.9847 0.0163 0.0000
vt 0.9847 0.0547 0.0000
vt 0.9847 0.1001 0.0000
vt 0.9847 0.1454 0.0000
vt 0.9395 0.1851 0.0000
vt 0.9847 0.1839 0.0000
vt 0.0020 0.9572 0.0000
vt 0.0472 0.9969 0.0000
vt 0.0020 0.9957 0.0000
vt 0.0020 0.9119 0.0000
vt 0.0020 0.8665 0.0000
vt 0.0020 0.8281 0.0000
vt 0.0472 0.8268 0.0000
vt 0.0757 0.5339 0.0000
vt 0.0305 0.4942 0.0000
vt 0.0757 0.4954 0.0000
vt 0.0757 0.5792 0.0000
vt 0.0757 0.6246 0.0000
vt 0.0757 0.6630 0.0000
vt 0.0305 0.6642 0.0000
vt 0.3273 0.2012 0.0000
vt 0.2820 0.1615 0.0000
vt 0.3273 0.1628 0.0000
# 254 texture coords

g Camaro_Warrior_RearLeft
usemtl Material__21
s off
f 1/1/1 2/2/1 3/3/1 
f 3/3/1 4/4/1 1/1/1 
f 5/5/2 6/6/2 2/7/2 
f 2/7/2 1/8/2 5/5/2 
f 7/9/3 8/10/3 6/6/3 
f 6/6/3 5/5/3 7/9/3 
f 8/11/4 7/12/4 9/13/4 
f 9/13/4 10/14/4 8/11/4 
f 11/15/5 12/16/5 1/17/5 
f 1/17/5 4/18/5 11/15/5 
f 5/19/6 1/17/6 12/16/6 
f 12/16/6 13/20/6 5/19/6 
f 14/21/7 7/22/7 5/19/7 
f 5/19/7 13/20/7 14/21/7 
f 14/21/8 15/23/8 9/24/8 
f 9/24/8 7/22/8 14/21/8 
f 16/25/9 17/26/9 12/27/9 
f 12/27/9 11/28/9 16/25/9 
f 12/29/10 17/30/10 18/31/10 
f 18/31/10 13/32/10 12/29/10 
f 14/33/11 13/32/11 18/31/11 
f 18/31/11 19/34/11 14/33/11 
f 14/35/12 19/36/12 20/37/12 
f 20/37/12 15/38/12 14/35/12 
f 21/39/13 22/40/13 23/41/13 
f 23/41/14 22/40/14 24/42/14 
f 24/42/15 22/40/15 25/43/15 
f 25/43/16 22/40/16 26/44/16 
f 2/2/17 6/45/17 27/46/17 
f 27/46/17 28/47/17 2/2/17 
f 29/48/18 27/49/18 6/50/18 
f 6/50/18 8/11/18 29/48/18 
f 28/47/19 30/51/19 31/52/19 
f 31/52/19 32/53/19 28/47/19 
f 28/54/20 27/55/20 33/56/20 
f 33/56/20 30/57/20 28/54/20 
f 34/58/21 33/56/21 27/55/21 
f 27/55/21 29/59/21 34/58/21 
f 34/60/22 29/48/22 35/61/22 
f 35/61/22 36/62/22 34/60/22 
f 37/63/23 31/64/23 30/65/23 
f 37/63/24 30/65/24 33/66/24 
f 37/63/25 33/66/25 34/67/25 
f 37/63/26 34/67/26 36/68/26 
f 32/53/27 3/3/27 2/2/27 
f 2/2/27 28/47/27 32/53/27 
f 29/48/28 8/11/28 10/14/28 
f 10/14/28 35/61/28 29/48/28 
f 38/69/29 39/70/29 10/14/29 
f 10/14/29 9/13/29 38/69/29 
f 39/71/30 38/72/30 40/73/30 
f 40/73/30 41/74/30 39/71/30 
f 42/75/31 41/74/31 40/73/31 
f 40/73/31 43/76/31 42/75/31 
f 42/77/32 43/78/32 44/79/32 
f 44/79/32 45/80/32 42/77/32 
f 46/81/33 38/82/33 9/24/33 
f 9/24/33 15/23/33 46/81/33 
f 40/83/34 38/82/34 46/81/34 
f 46/81/34 47/84/34 40/83/34 
f 43/85/35 40/83/35 47/84/35 
f 47/84/35 48/86/35 43/85/35 
f 49/87/36 44/88/36 43/85/36 
f 43/85/36 48/86/36 49/87/36 
f 15/38/37 20/37/37 50/89/37 
f 50/89/37 46/90/37 15/38/37 
f 46/91/38 50/92/38 51/93/38 
f 51/93/38 47/94/38 46/91/38 
f 51/93/39 52/95/39 48/96/39 
f 48/96/39 47/94/39 51/93/39 
f 53/97/40 49/98/40 48/99/40 
f 48/99/40 52/100/40 53/97/40 
f 26/44/41 22/40/41 54/101/41 
f 54/101/42 22/40/42 55/102/42 
f 55/102/43 22/40/43 56/103/43 
f 56/103/44 22/40/44 57/104/44 
f 58/105/45 59/106/45 39/70/45 
f 39/70/45 41/107/45 58/105/45 
f 60/108/46 58/109/46 41/110/46 
f 41/110/46 42/77/46 60/108/46 
f 61/111/47 36/62/47 35/61/47 
f 35/61/47 59/106/47 61/111/47 
f 59/112/48 58/113/48 62/114/48 
f 62/114/48 61/115/48 59/112/48 
f 60/116/49 63/117/49 62/114/49 
f 62/114/49 58/113/49 60/116/49 
f 64/118/50 65/119/50 63/120/50 
f 63/120/50 60/108/50 64/118/50 
f 37/63/51 36/68/51 61/121/51 
f 37/63/52 61/121/52 62/122/52 
f 37/63/53 62/122/53 63/123/53 
f 37/63/54 63/123/54 65/124/54 
f 39/70/55 59/106/55 35/61/55 
f 35/61/55 10/14/55 39/70/55 
f 64/118/56 60/108/56 42/77/56 
f 42/77/56 45/80/56 64/118/56 
f 66/125/57 67/126/57 45/80/57 
f 45/80/57 44/79/57 66/125/57 
f 66/127/58 68/128/58 69/129/58 
f 69/129/58 67/130/58 66/127/58 
f 68/128/59 70/131/59 71/132/59 
f 71/132/59 69/129/59 68/128/59 
f 72/133/60 73/134/60 71/135/60 
f 71/135/60 70/136/60 72/133/60 
f 49/87/61 74/137/61 66/138/61 
f 66/138/61 44/88/61 49/87/61 
f 66/138/62 74/137/62 75/139/62 
f 75/139/62 68/140/62 66/138/62 
f 76/141/63 70/142/63 68/140/63 
f 68/140/63 75/139/63 76/141/63 
f 77/143/64 72/144/64 70/142/64 
f 70/142/64 76/141/64 77/143/64 
f 49/98/65 53/97/65 78/145/65 
f 78/145/65 74/146/65 49/98/65 
f 74/147/66 78/148/66 79/149/66 
f 79/149/66 75/150/66 74/147/66 
f 80/151/67 76/152/67 75/150/67 
f 75/150/67 79/149/67 80/151/67 
f 81/153/68 77/154/68 76/155/68 
f 76/155/68 80/156/68 81/153/68 
f 57/104/69 22/40/69 82/157/69 
f 82/157/70 22/40/70 83/158/70 
f 83/158/71 22/40/71 84/159/71 
f 84/159/72 22/40/72 85/160/72 
f 86/161/73 87/162/73 67/126/73 
f 67/126/73 69/163/73 86/161/73 
f 88/164/74 86/165/74 69/166/74 
f 69/166/74 71/135/74 88/164/74 
f 64/118/75 87/162/75 89/167/75 
f 89/167/75 65/119/75 64/118/75 
f 87/168/76 86/169/76 90/170/76 
f 90/170/76 89/171/76 87/168/76 
f 88/172/77 91/173/77 90/170/77 
f 90/170/77 86/169/77 88/172/77 
f 92/174/78 91/175/78 88/164/78 
f 88/164/78 93/176/78 92/174/78 
f 37/63/79 65/124/79 89/177/79 
f 37/63/80 89/177/80 90/178/80 
f 37/63/81 90/178/81 91/179/81 
f 37/63/82 91/179/82 92/180/82 
f 64/118/83 45/80/83 67/126/83 
f 67/126/83 87/162/83 64/118/83 
f 71/135/84 73/134/84 93/176/84 
f 93/176/84 88/164/84 71/135/84 
f 94/181/85 73/134/85 72/133/85 
f 72/133/85 95/182/85 94/181/85 
f 94/183/86 95/184/86 96/185/86 
f 96/185/86 97/186/86 94/183/86 
f 98/187/87 99/188/87 97/186/87 
f 97/186/87 96/185/87 98/187/87 
f 98/189/88 4/4/88 3/3/88 
f 3/3/88 99/190/88 98/189/88 
f 72/144/89 77/143/89 100/191/89 
f 100/191/89 95/192/89 72/144/89 
f 95/192/90 100/191/90 101/193/90 
f 101/193/90 96/194/90 95/192/90 
f 96/194/91 101/193/91 102/195/91 
f 102/195/91 98/196/91 96/194/91 
f 11/15/92 4/18/92 98/196/92 
f 98/196/92 102/195/92 11/15/92 
f 81/153/93 103/197/93 100/198/93 
f 100/198/93 77/154/93 81/153/93 
f 104/199/94 101/200/94 100/201/94 
f 100/201/94 103/202/94 104/199/94 
f 105/203/95 102/204/95 101/200/95 
f 101/200/95 104/199/95 105/203/95 
f 102/205/96 105/206/96 16/25/96 
f 16/25/96 11/28/96 102/205/96 
f 85/160/97 22/40/97 106/207/97 
f 106/207/98 22/40/98 107/208/98 
f 107/208/99 22/40/99 108/209/99 
f 108/209/100 22/40/100 21/39/100 
f 109/210/101 94/181/101 97/211/101 
f 97/211/101 110/212/101 109/210/101 
f 99/190/102 111/213/102 110/214/102 
f 110/214/102 97/215/102 99/190/102 
f 112/216/103 92/174/103 93/176/103 
f 93/176/103 109/210/103 112/216/103 
f 110/217/104 113/218/104 112/219/104 
f 112/219/104 109/220/104 110/217/104 
f 113/218/105 110/217/105 111/221/105 
f 111/221/105 114/222/105 113/218/105 
f 31/52/106 114/223/106 111/213/106 
f 111/213/106 32/53/106 31/52/106 
f 37/63/107 92/180/107 112/224/107 
f 37/63/108 112/224/108 113/225/108 
f 37/63/109 113/225/109 114/226/109 
f 37/63/110 114/226/110 31/64/110 
f 94/181/111 109/210/111 93/176/111 
f 93/176/111 73/134/111 94/181/111 
f 99/190/112 3/3/112 32/53/112 
f 32/53/112 111/213/112 99/190/112 
f 21/227/113 23/228/113 17/26/113 
f 17/26/113 16/25/113 21/227/113 
f 17/26/114 23/228/114 24/229/114 
f 24/229/114 18/230/114 17/26/114 
f 18/231/115 24/232/115 25/233/115 
f 25/233/115 19/36/115 18/231/115 
f 26/234/116 20/37/116 19/36/116 
f 19/36/116 25/233/116 26/234/116 
f 54/235/117 50/89/117 20/37/117 
f 20/37/117 26/234/117 54/235/117 
f 51/236/118 50/89/118 54/235/118 
f 54/235/118 55/237/118 51/236/118 
f 56/238/119 52/100/119 51/239/119 
f 51/239/119 55/240/119 56/238/119 
f 53/97/120 52/100/120 56/238/120 
f 56/238/120 57/241/120 53/97/120 
f 53/97/121 57/241/121 82/242/121 
f 82/242/121 78/145/121 53/97/121 
f 78/145/122 82/242/122 83/243/122 
f 83/243/122 79/244/122 78/145/122 
f 84/245/123 80/156/123 79/246/123 
f 79/246/123 83/247/123 84/245/123 
f 81/153/124 80/156/124 84/245/124 
f 84/245/124 85/248/124 81/153/124 
f 103/197/125 81/153/125 85/248/125 
f 85/248/125 106/249/125 103/197/125 
f 106/249/126 107/250/126 104/251/126 
f 104/251/126 103/197/126 106/249/126 
f 108/252/127 105/206/127 104/253/127 
f 104/253/127 107/254/127 108/252/127 
f 21/227/128 16/25/128 105/206/128 
f 105/206/128 108/252/128 21/227/128 
# 0 polygons - 224 triangles

